HIERARCHY
ROOT Hips
{
    OFFSET   0.000000   0.000000   0.000000
    CHANNELS 6 Xposition Yposition Zposition Zrotation Xrotation Yrotation
    JOINT Chest
    {
        OFFSET   0.000000   8.007230   0.000000
        CHANNELS 3 Zrotation Xrotation Yrotation
        JOINT Chest2
        {
            OFFSET   0.000000  22.077100   0.000000
            CHANNELS 3 Zrotation Xrotation Yrotation
            JOINT Neck
            {
                OFFSET   0.000000  23.254800   0.000000
                CHANNELS 3 Zrotation Xrotation Yrotation
                JOINT Head
                {
                    OFFSET   0.000010  14.370000   1.956600
                    CHANNELS 3 Zrotation Xrotation Yrotation
                    End Site
                    {
                        OFFSET   0.000000  19.566000   0.000000
                    }
                }
            }
            JOINT LeftCollar
            {
                OFFSET   3.911900  19.017000  -0.467062
                CHANNELS 3 Zrotation Xrotation Yrotation
                JOINT LeftShoulder
                {
                    OFFSET  10.383700   0.000000   0.000000
                    CHANNELS 3 Zrotation Xrotation Yrotation
                    JOINT LeftElbow
                    {
                        OFFSET  26.662100   0.001193   0.000835
                        CHANNELS 3 Zrotation Xrotation Yrotation
                        JOINT LeftWrist
                        {
                            OFFSET  28.869000  -0.000058  -0.000075
                            CHANNELS 3 Zrotation Xrotation Yrotation
                            JOINT LeftFinger0
                            {
                                OFFSET   2.044660  -2.323460   3.252850
                                CHANNELS 3 Zrotation Xrotation Yrotation
                                JOINT LeftFinger01
                                {
                                    OFFSET   3.088130   0.000000   0.000000
                                    CHANNELS 3 Zrotation Xrotation Yrotation
                                    JOINT LeftFinger02
                                    {
                                        OFFSET   2.639450   0.000000   0.000000
                                        CHANNELS 3 Zrotation Xrotation Yrotation
                                        End Site
                                        {
                                            OFFSET   2.582190   0.000000   0.000000
                                        }
                                    }
                                }
                            }
                            JOINT LeftFinger1
                            {
                                OFFSET   8.364480   0.000000   3.252850
                                CHANNELS 3 Zrotation Xrotation Yrotation
                                JOINT LeftFinger11
                                {
                                    OFFSET   4.646920   0.000000   0.000000
                                    CHANNELS 3 Zrotation Xrotation Yrotation
                                    JOINT LeftFinger12
                                    {
                                        OFFSET   2.323460   0.000000   0.000000
                                        CHANNELS 3 Zrotation Xrotation Yrotation
                                        End Site
                                        {
                                            OFFSET   2.273050   0.000000   0.000000
                                        }
                                    }
                                }
                            }
                            JOINT LeftFinger2
                            {
                                OFFSET   8.364490   0.000016   1.078090
                                CHANNELS 3 Zrotation Xrotation Yrotation
                                JOINT LeftFinger21
                                {
                                    OFFSET   5.111620   0.000000   0.000000
                                    CHANNELS 3 Zrotation Xrotation Yrotation
                                    JOINT LeftFinger22
                                    {
                                        OFFSET   2.788150   0.000012   0.000000
                                        CHANNELS 3 Zrotation Xrotation Yrotation
                                        End Site
                                        {
                                            OFFSET   2.727660   0.000000   0.000000
                                        }
                                    }
                                }
                            }
                            JOINT LeftFinger3
                            {
                                OFFSET   7.899780   0.000014  -1.078090
                                CHANNELS 3 Zrotation Xrotation Yrotation
                                JOINT LeftFinger31
                                {
                                    OFFSET   4.646930   0.000000   0.000000
                                    CHANNELS 3 Zrotation Xrotation Yrotation
                                    JOINT LeftFinger32
                                    {
                                        OFFSET   2.323470   0.000000   0.000000
                                        CHANNELS 3 Zrotation Xrotation Yrotation
                                        End Site
                                        {
                                            OFFSET   2.273050   0.000000   0.000000
                                        }
                                    }
                                }
                            }
                            JOINT LeftFinger4
                            {
                                OFFSET   7.435090   0.000000  -3.252850
                                CHANNELS 3 Zrotation Xrotation Yrotation
                                JOINT LeftFinger41
                                {
                                    OFFSET   3.717550   0.000000   0.000000
                                    CHANNELS 3 Zrotation Xrotation Yrotation
                                    JOINT LeftFinger42
                                    {
                                        OFFSET   1.858770   0.000000   0.000000
                                        CHANNELS 3 Zrotation Xrotation Yrotation
                                        End Site
                                        {
                                            OFFSET   1.818440   0.000000   0.000000
                                        }
                                    }
                                }
                            }
                        }
                    }
                }
            }
            JOINT RightCollar
            {
                OFFSET  -3.911900  19.017000  -0.467063
                CHANNELS 3 Zrotation Xrotation Yrotation
                JOINT RightShoulder
                {
                    OFFSET -10.383700   0.000023   0.000000
                    CHANNELS 3 Zrotation Xrotation Yrotation
                    JOINT RightElbow
                    {
                        OFFSET -26.662100   0.001246   0.001011
                        CHANNELS 3 Zrotation Xrotation Yrotation
                        JOINT RightWrist
                        {
                            OFFSET -28.869000  -0.000026  -0.000078
                            CHANNELS 3 Zrotation Xrotation Yrotation
                            JOINT RightFinger0
                            {
                                OFFSET  -2.044660  -2.323490   3.252850
                                CHANNELS 3 Zrotation Xrotation Yrotation
                                JOINT RightFinger01
                                {
                                    OFFSET  -3.088130   0.000000   0.000000
                                    CHANNELS 3 Zrotation Xrotation Yrotation
                                    JOINT RightFinger02
                                    {
                                        OFFSET  -2.639460   0.000000   0.000000
                                        CHANNELS 3 Zrotation Xrotation Yrotation
                                        End Site
                                        {
                                            OFFSET  -2.582190   0.000000   0.000000
                                        }
                                    }
                                }
                            }
                            JOINT RightFinger1
                            {
                                OFFSET  -8.364480   0.000000   3.252850
                                CHANNELS 3 Zrotation Xrotation Yrotation
                                JOINT RightFinger11
                                {
                                    OFFSET  -4.646920   0.000000   0.000000
                                    CHANNELS 3 Zrotation Xrotation Yrotation
                                    JOINT RightFinger12
                                    {
                                        OFFSET  -2.323470   0.000000   0.000000
                                        CHANNELS 3 Zrotation Xrotation Yrotation
                                        End Site
                                        {
                                            OFFSET  -2.273050   0.000000   0.000000
                                        }
                                    }
                                }
                            }
                            JOINT RightFinger2
                            {
                                OFFSET  -8.364480   0.000000   1.078090
                                CHANNELS 3 Zrotation Xrotation Yrotation
                                JOINT RightFinger21
                                {
                                    OFFSET  -5.111620   0.000000   0.000000
                                    CHANNELS 3 Zrotation Xrotation Yrotation
                                    JOINT RightFinger22
                                    {
                                        OFFSET  -2.788160   0.000000   0.000000
                                        CHANNELS 3 Zrotation Xrotation Yrotation
                                        End Site
                                        {
                                            OFFSET  -2.727660   0.000000   0.000000
                                        }
                                    }
                                }
                            }
                            JOINT RightFinger3
                            {
                                OFFSET  -7.899780   0.000000  -1.078090
                                CHANNELS 3 Zrotation Xrotation Yrotation
                                JOINT RightFinger31
                                {
                                    OFFSET  -4.646930   0.000000   0.000000
                                    CHANNELS 3 Zrotation Xrotation Yrotation
                                    JOINT RightFinger32
                                    {
                                        OFFSET  -2.323470   0.000000   0.000000
                                        CHANNELS 3 Zrotation Xrotation Yrotation
                                        End Site
                                        {
                                            OFFSET  -2.273050   0.000000   0.000000
                                        }
                                    }
                                }
                            }
                            JOINT RightFinger4
                            {
                                OFFSET  -7.435090   0.000000  -3.252850
                                CHANNELS 3 Zrotation Xrotation Yrotation
                                JOINT RightFinger41
                                {
                                    OFFSET  -3.717550   0.000000   0.000000
                                    CHANNELS 3 Zrotation Xrotation Yrotation
                                    JOINT RightFinger42
                                    {
                                        OFFSET  -1.858760   0.000000   0.000000
                                        CHANNELS 3 Zrotation Xrotation Yrotation
                                        End Site
                                        {
                                            OFFSET  -1.818440   0.000000   0.000000
                                        }
                                    }
                                }
                            }
                        }
                    }
                }
            }
        }
    }
    JOINT LeftHip
    {
        OFFSET   9.783010   0.000000   0.000000
        CHANNELS 3 Zrotation Xrotation Yrotation
        JOINT LeftKnee
        {
            OFFSET   0.000073 -41.789100   0.001749
            CHANNELS 3 Zrotation Xrotation Yrotation
            JOINT LeftAnkle
            {
                OFFSET   0.000111 -41.133200  -0.000179
                CHANNELS 3 Zrotation Xrotation Yrotation
                JOINT LeftToe
                {
                    OFFSET   0.000000  -6.358960  14.674500
                    CHANNELS 3 Zrotation Xrotation Yrotation
                    End Site
                    {
                        OFFSET   0.000000   0.000000   3.913200
                    }
                }
            }
        }
    }
    JOINT RightHip
    {
        OFFSET  -9.783010   0.000000   0.000000
        CHANNELS 3 Zrotation Xrotation Yrotation
        JOINT RightKnee
        {
            OFFSET   0.000424 -41.789200   0.005205
            CHANNELS 3 Zrotation Xrotation Yrotation
            JOINT RightAnkle
            {
                OFFSET   0.000000 -41.133200  -0.000155
                CHANNELS 3 Zrotation Xrotation Yrotation
                JOINT RightToe
                {
                    OFFSET   0.000000  -6.358960  14.674500
                    CHANNELS 3 Zrotation Xrotation Yrotation
                    End Site
                    {
                        OFFSET   0.000000   0.000000   3.913200
                    }
                }
            }
        }
    }
}
MOTION
Frames: 4
Frame Time:   0.016667
  0.635928  90.074700   1.967050  -0.767088  -1.818520  -5.210630  -0.069366   2.753820  -1.085320  -0.086579   5.508470  -2.171110   1.819610   0.034119  -0.006527   2.994260   0.068828   8.416770  -5.548420  -0.682917   6.766770 -72.458600  17.863700   1.785290  -4.718500  -9.772590 -16.294300  16.488300  -1.329930   9.352870  34.986800  21.407700 -55.582100 -30.281700   0.001664   0.014383 -10.140900   0.000834   0.006168 -40.082900   8.682570 -10.169500 -33.428500  -0.000924  -0.001284 -23.612200   0.004454  -0.008668 -32.331900   0.113935  -0.179994 -48.498100  -0.003216  -0.006569 -32.299700   0.000111  -0.014568 -28.783200  -0.042367   0.079782 -41.298600   0.000934  -0.013097 -27.504900   0.001283   0.000424 -38.592800  -0.673247   0.843695 -57.896400   0.002666  -0.001005 -38.559100   0.008989  -0.005948  10.702500   2.799590   7.917570  67.426400  13.316200  -0.907029   2.815070  -5.930610  16.328900 -12.520800 -14.382100   5.137880 -40.771300  37.290400  75.013100  29.485100   0.003203  -0.006528   9.739160   0.001041  -0.003378  39.198000  11.406200  13.633500  33.190100   0.004171   0.011126  23.395000   0.002666   0.003123  28.736500   1.424400   2.596130  40.796800   0.002055   0.003477  27.170600  -0.005846   0.005709  30.095700   1.484560   2.562230  45.193600   0.000115   0.001732  30.098900   0.002080  -0.000561  43.805100  -2.265760  -2.347640  65.777000   0.002798   0.003354  43.807500   0.001887  -0.012285   0.447519   3.240130   3.360970   0.639596   1.216200  14.333900  -5.366350  -4.550690   4.799630  -0.000000   0.000000  -0.000000   0.878205   2.272060  -8.017010   0.335077   1.979410  -7.670170 -10.463000   0.922379   1.048010  -0.000000   0.000000  -0.000000
  0.635959  90.074700   1.967340  -0.767220  -1.823230  -5.201360  -0.069377   2.756100  -1.083050  -0.086667   5.513010  -2.166540   1.819580   0.033844  -0.006503   2.994100   0.068351   8.420270  -5.558310  -0.682937   6.762670 -72.475200  17.874400   1.778570  -4.712900  -9.795620 -16.296900  16.491300  -1.351100   9.350430  34.990600  21.422300 -55.633100 -30.271700   0.001663   0.014381 -10.135900   0.000837   0.006168 -40.099000   8.703340 -10.187400 -33.444300  -0.000929  -0.001285 -23.626600   0.004454  -0.008667 -32.344700   0.121999  -0.192633 -48.517400  -0.003215  -0.006562 -32.312600   0.000106  -0.014566 -28.783100  -0.043096   0.079783 -41.347700   0.000933  -0.013094 -27.537600   0.001278   0.000433 -38.605500  -0.673130   0.843561 -57.915500   0.002664  -0.000998 -38.571700   0.008983  -0.005946  10.701900   2.803600   7.917770  67.423900  13.318200  -0.911724   2.825560  -5.934940  16.309900 -12.510900 -14.371000   5.145990 -40.777500  37.297600  75.012500  29.487900   0.003202  -0.006528   9.739300   0.001031  -0.003376  39.169100  11.405600  13.645600  33.167500   0.004170   0.011128  23.374400   0.002652   0.003125  28.736500   1.424400   2.596130  40.770100   0.002055   0.003467  27.152900  -0.005846   0.005712  30.084600   1.484560   2.562230  45.176900   0.000115   0.001729  30.087800   0.002080  -0.000557  43.785700  -2.259330  -2.347630  65.747700   0.002794   0.003343  43.788000   0.001885  -0.012288   0.446961   3.212840   3.360940   0.641632   1.244870  14.334100  -5.366310  -4.549330   4.795500   0.000000   0.000000   0.000000   0.878342   2.275840  -8.016730   0.335384   1.978350  -7.670670 -10.462700   0.921997   1.040000   0.000000   0.000000  -0.000000
  0.636042  90.074700   1.967640  -0.767552  -1.832510  -5.185480  -0.069387   2.761000  -1.079800  -0.086749   5.522800  -2.160000   1.819490   0.033569  -0.006474   2.993940   0.067873   8.430510  -5.574160  -0.682961   6.755470 -72.491600  17.894200   1.765720  -4.711280  -9.826710 -16.308500  16.492100  -1.372300   9.339880  34.994600  21.450400 -55.692900 -30.257400   0.001661   0.014378 -10.128700   0.000844   0.006170 -40.115200   8.724120 -10.205400 -33.460100  -0.000937  -0.001287 -23.641100   0.004454  -0.008665 -32.357500   0.130062  -0.205272 -48.536600  -0.003214  -0.006544 -32.325400   0.000087  -0.014565 -28.783100  -0.043825   0.079783 -41.396800   0.000928  -0.013085 -27.570300   0.001264   0.000459 -38.618200  -0.672966   0.843373 -57.934500   0.002656  -0.000978 -38.584400   0.008968  -0.005941  10.700700   2.812070   7.917990  67.418200  13.331900  -0.916463   2.837380  -5.949010  16.277600 -12.500800 -14.359900   5.154890 -40.788900  37.309100  75.014100  29.490600   0.003201  -0.006524   9.739430   0.001022  -0.003372  39.126300  11.404800  13.663500  33.134000   0.004163   0.011131  23.343900   0.002620   0.003130  28.736500   1.424400   2.596130  40.732700   0.002055   0.003446  27.128000  -0.005844   0.005715  30.068700   1.484560   2.562230  45.152900   0.000115   0.001720  30.071800   0.002081  -0.000547  43.756500  -2.249700  -2.347620  65.703900   0.002786   0.003314  43.758800   0.001878  -0.012294   0.446395   3.185550   3.361040   0.643671   1.273540  14.334100  -5.366500  -4.548000   4.788310   0.000000   0.000000   0.000000   0.878709   2.281770  -8.014660   0.335796   1.977280  -7.674210 -10.462300   0.921195   1.026220  -0.000000   0.000000  -0.000000
  0.636190  90.074700   1.966390  -0.767883  -1.843250  -5.171780  -0.069426   2.768040  -1.078310  -0.086768   5.536870  -2.157050   1.819360   0.034166  -0.006470   2.993770   0.069065   8.449510  -5.586660  -0.679777   6.747410 -72.489300  17.916600   1.752870  -4.722130  -9.836310 -16.334500  16.471400  -1.362150   9.316350  35.001900  21.474300 -55.708000 -30.254100   0.001666   0.014395 -10.127000   0.000855   0.006181 -40.113500   8.710750 -10.191500 -33.456800  -0.000942  -0.001284 -23.638000   0.004453  -0.008667 -32.352400   0.121157  -0.191252 -48.529000  -0.003215  -0.006514 -32.320300   0.000047  -0.014566 -28.783100  -0.038581   0.074278 -41.394400   0.000921  -0.013072 -27.568700   0.001242   0.000499 -38.612300  -0.672895   0.843292 -57.925700   0.002641  -0.000946 -38.578500   0.008943  -0.005933  10.699300   2.822550   7.918020  67.406800  13.366800  -0.903237   2.841820  -5.976850  16.248700 -12.500500 -14.366100   5.155560 -40.796000  37.315600  75.017700  29.486600   0.003177  -0.006502   9.739400   0.001027  -0.003371  39.102700  11.404300  13.673300  33.115500   0.004144   0.011131  23.327100   0.002579   0.003137  28.736200   1.427870   2.602490  40.716600   0.002048   0.003418  27.117300  -0.005834   0.005717  30.060400   1.487950   2.568630  45.140300   0.000115   0.001707  30.063500   0.002088  -0.000532  43.739700  -2.243990  -2.345620  65.678500   0.002779   0.003269  43.741900   0.001862  -0.012300   0.445722   3.211880   3.361480   0.642475   1.255700  14.331800  -5.367070  -4.548450   4.781940  -0.000000   0.000000   0.000000   0.879422   2.284800  -8.007100   0.335656   1.984280  -7.684180 -10.463600   0.920325   1.013860   0.000000   0.000000  -0.000000
